<mxfile host="app.diagrams.net" modified="2021-03-12T16:36:01.910Z" agent="5.0 (Windows NT 10.0; Win64; x64) AppleWebKit/537.36 (KHTML, like Gecko) Chrome/88.0.4324.190 Safari/537.36" etag="7iQoDrv9bZVxDI0aNnbm" version="14.4.8" type="github">
  <diagram id="HolWiXEPeuLV7ym3ct0_" name="Page-1">
    <mxGraphModel dx="1038" dy="548" grid="1" gridSize="10" guides="1" tooltips="1" connect="1" arrows="1" fold="1" page="1" pageScale="1" pageWidth="850" pageHeight="1100" math="0" shadow="0">
      <root>
        <mxCell id="0" />
        <mxCell id="1" parent="0" />
        <mxCell id="GyvDfbJIoFV9S9uWPGpv-1" value="t: Telepes" style="html=1;" parent="1" vertex="1">
          <mxGeometry x="280" y="80" width="110" height="50" as="geometry" />
        </mxCell>
        <mxCell id="GyvDfbJIoFV9S9uWPGpv-2" value="e: TeleportEpito" style="html=1;" parent="1" vertex="1">
          <mxGeometry x="320" y="310" width="110" height="50" as="geometry" />
        </mxCell>
        <mxCell id="GyvDfbJIoFV9S9uWPGpv-7" value="Controller" style="html=1;" parent="1" vertex="1">
          <mxGeometry x="50" y="210" width="110" height="50" as="geometry" />
        </mxCell>
        <mxCell id="GyvDfbJIoFV9S9uWPGpv-11" value="" style="html=1;verticalAlign=bottom;endArrow=none;endFill=0;" parent="1" source="GyvDfbJIoFV9S9uWPGpv-7" target="GyvDfbJIoFV9S9uWPGpv-1" edge="1">
          <mxGeometry width="80" relative="1" as="geometry">
            <mxPoint x="380" y="180" as="sourcePoint" />
            <mxPoint x="460" y="180" as="targetPoint" />
          </mxGeometry>
        </mxCell>
        <mxCell id="GyvDfbJIoFV9S9uWPGpv-17" value="" style="html=1;verticalAlign=bottom;endArrow=none;endFill=0;" parent="1" source="GyvDfbJIoFV9S9uWPGpv-7" target="GyvDfbJIoFV9S9uWPGpv-2" edge="1">
          <mxGeometry width="80" relative="1" as="geometry">
            <mxPoint x="209.23076923076928" y="270" as="sourcePoint" />
            <mxPoint x="350.7692307692307" y="190" as="targetPoint" />
          </mxGeometry>
        </mxCell>
        <mxCell id="GyvDfbJIoFV9S9uWPGpv-21" value="1: &amp;lt;&amp;lt;create&amp;gt;&amp;gt;" style="html=1;verticalAlign=bottom;endArrow=block;" parent="1" edge="1">
          <mxGeometry x="-0.6471" y="17" width="80" relative="1" as="geometry">
            <mxPoint x="160" y="190" as="sourcePoint" />
            <mxPoint x="210" y="160" as="targetPoint" />
            <mxPoint as="offset" />
          </mxGeometry>
        </mxCell>
        <mxCell id="GyvDfbJIoFV9S9uWPGpv-22" value="2: &amp;lt;&amp;lt;create&amp;gt;&amp;gt;" style="html=1;verticalAlign=bottom;endArrow=block;" parent="1" edge="1">
          <mxGeometry x="0.3077" y="19" width="80" relative="1" as="geometry">
            <mxPoint x="200" y="260" as="sourcePoint" />
            <mxPoint x="280" y="290" as="targetPoint" />
            <mxPoint as="offset" />
          </mxGeometry>
        </mxCell>
      </root>
    </mxGraphModel>
  </diagram>
</mxfile>
